<svg xmlns="http://www.w3.org/2000/svg" width="270.549" height="56.52" viewBox="0 0 270.549 56.52">
  <g id="xperi-logo" transform="translate(-0.05 -0.05)">
    <path id="Path_50" data-name="Path 50" d="M121.552,3.6H115.58a1.376,1.376,0,0,0-1.28,1.28V50.522a1.376,1.376,0,0,0,1.28,1.28h5.972a1.376,1.376,0,0,0,1.28-1.28V4.88A1.229,1.229,0,0,0,121.552,3.6Z" transform="translate(129.425 4.022)" fill="#49378f"/>
    <path id="Path_51" data-name="Path 51" d="M19.821,4.636,15.555.37a1.592,1.592,0,0,0-1.92,0L9.37,4.636a1.592,1.592,0,0,0,0,1.92l4.266,4.266a1.592,1.592,0,0,0,1.92,0l4.266-4.266A1.6,1.6,0,0,0,19.821,4.636Z" transform="translate(10.195)" fill="#8dba38"/>
    <path id="Path_52" data-name="Path 52" d="M100.356,44.124H70.5a4.374,4.374,0,0,1-4.479-4.479V35.806A4.374,4.374,0,0,1,70.5,31.327H95.878a1.376,1.376,0,0,0,1.28-1.28V24.928a1.376,1.376,0,0,0-1.28-1.28H70.5a4.374,4.374,0,0,1-4.479-4.479V15.757A4.374,4.374,0,0,1,70.5,11.278H99.5a1.376,1.376,0,0,0,1.28-1.28V4.88A1.376,1.376,0,0,0,99.5,3.6H58.98A1.376,1.376,0,0,0,57.7,4.88V50.522a1.376,1.376,0,0,0,1.28,1.28h41.59a1.376,1.376,0,0,0,1.28-1.28V45.4A1.6,1.6,0,0,0,100.356,44.124Z" transform="translate(65.307 4.022)" fill="#7c248f"/>
    <path id="Path_53" data-name="Path 53" d="M74.009,8.719A17.481,17.481,0,0,0,61.852,3.6H28.58A1.376,1.376,0,0,0,27.3,4.88V10a1.376,1.376,0,0,0,1.28,1.28H30.5a4.374,4.374,0,0,1,4.479,4.479V50.522a1.376,1.376,0,0,0,1.28,1.28H42.23a1.376,1.376,0,0,0,1.28-1.28V43.057a4.827,4.827,0,0,1,4.905-4.905H61.852a16.271,16.271,0,0,0,12.157-5.119,17.481,17.481,0,0,0,5.119-12.157A17.481,17.481,0,0,0,74.009,8.719Zm-12.8,21.755H47.988a4.374,4.374,0,0,1-4.479-4.479V15.757a4.374,4.374,0,0,1,4.479-4.479H61.212a9.558,9.558,0,0,1,9.6,9.6A9.7,9.7,0,0,1,61.212,30.474Z" transform="translate(30.869 4.022)" fill="#9a2970"/>
    <path id="Path_54" data-name="Path 54" d="M49,46.54l-17.7-17.7a1.3,1.3,0,0,1,0-1.706L49,9.429a1.3,1.3,0,0,0,0-1.706L44.946,3.67a1.3,1.3,0,0,0-1.706,0L27.03,19.879a3.347,3.347,0,0,1-4.692,0L6.129,3.67a1.6,1.6,0,0,0-1.92,0L.37,7.722a1.3,1.3,0,0,0,0,1.706l17.7,17.7a1.3,1.3,0,0,1,0,1.706L.37,46.54a1.3,1.3,0,0,0,0,1.706l3.839,4.266a1.3,1.3,0,0,0,1.706,0L22.125,36.3a3.347,3.347,0,0,1,4.692,0h0L43.026,52.512a1.3,1.3,0,0,0,1.706,0l4.052-4.052A1.35,1.35,0,0,0,49,46.54Z" transform="translate(0 3.738)" fill="#b51a65"/>
    <path id="Path_55" data-name="Path 55" d="M137.174,50.722a.784.784,0,0,0-.213-.64h0l-10.877-12.8-.64-.64a.784.784,0,0,1-.213-.64,1.173,1.173,0,0,1,.64-1.066h0a12.66,12.66,0,0,0,3.839-2.773,16.882,16.882,0,0,0,5.119-11.731,15.937,15.937,0,0,0-4.906-11.731A16.652,16.652,0,0,0,118.192,3.8H84.28A1.376,1.376,0,0,0,83,5.08V10.2a1.376,1.376,0,0,0,1.28,1.28H86.2a4.374,4.374,0,0,1,4.479,4.479V50.722A1.376,1.376,0,0,0,91.958,52H97.93a1.376,1.376,0,0,0,1.28-1.28V41.764a4.374,4.374,0,0,1,4.479-4.479h10.024a3.04,3.04,0,0,1,2.559,1.28L124.8,48.589l1.92,2.346A3.425,3.425,0,0,0,129.069,52h7.038C136.747,51.575,137.174,51.149,137.174,50.722ZM117.338,29.181h-13.65A4.374,4.374,0,0,1,99.209,24.7V15.531a4.374,4.374,0,0,1,4.479-4.479h13.65a9.012,9.012,0,0,1,8.958,8.958A9.2,9.2,0,0,1,117.338,29.181Z" transform="translate(93.968 4.248)" fill="#552b9a"/>
    <g id="Group_88" data-name="Group 88" transform="translate(260.788 46.012)">
      <path id="Path_56" data-name="Path 56" d="M127.206,21.6a4.3,4.3,0,0,1,2.346.64,4.185,4.185,0,0,1,1.92,1.92,5.679,5.679,0,0,1,.64,2.559,4.3,4.3,0,0,1-.64,2.346,5.505,5.505,0,0,1-1.92,1.92,4.861,4.861,0,0,1-2.346.64,4.3,4.3,0,0,1-2.346-.64,5.505,5.505,0,0,1-1.92-1.92,4.862,4.862,0,0,1-.64-2.346,5.679,5.679,0,0,1,.64-2.559,4.185,4.185,0,0,1,1.92-1.92A4.862,4.862,0,0,1,127.206,21.6Zm0,.853a6.228,6.228,0,0,0-1.92.427,4.983,4.983,0,0,0-1.493,1.493,3.6,3.6,0,0,0-.64,2.133,4.768,4.768,0,0,0,.64,2.133,4.983,4.983,0,0,0,1.493,1.493,3.6,3.6,0,0,0,2.133.64,4.768,4.768,0,0,0,2.133-.64,4.983,4.983,0,0,0,1.493-1.493,3.6,3.6,0,0,0,.64-2.133,4.115,4.115,0,0,0-.64-2.133,4.983,4.983,0,0,0-1.493-1.493A4.592,4.592,0,0,0,127.206,22.453Zm-2.133,6.825V23.946h1.92c.64,0,1.066,0,1.28.213.213,0,.427.213.64.427s.213.427.213.853-.213.64-.427,1.066a1.629,1.629,0,0,1-1.066.427.745.745,0,0,1,.427.213c.213.213.427.64.853,1.066l.64,1.066h-1.066l-.427-.853a12.63,12.63,0,0,0-.853-1.28.784.784,0,0,0-.64-.213h-.64v2.346h-.853Zm.853-2.986h1.066a1.6,1.6,0,0,0,1.066-.213.784.784,0,0,0,.213-.64c0-.213,0-.213-.213-.427,0-.213-.213-.213-.427-.213h-1.706Z" transform="translate(-122.3 -21.6)" fill="#49378f"/>
    </g>
  </g>
</svg>
